<svg xmlns="http://www.w3.org/2000/svg" xmlns:xlink="http://www.w3.org/1999/xlink" width="500" zoomAndPan="magnify" viewBox="0 0 375 374.999991" height="500" preserveAspectRatio="xMidYMid meet" version="1.0"><path fill="#000000" d="M 312.261719 207.816406 C 312.261719 210.371094 312.199219 212.925781 312.074219 215.480469 C 311.949219 218.03125 311.761719 220.578125 311.511719 223.125 C 311.261719 225.667969 310.949219 228.203125 310.574219 230.730469 C 310.199219 233.257812 309.761719 235.777344 309.261719 238.28125 C 308.765625 240.789062 308.207031 243.28125 307.585938 245.761719 C 306.964844 248.238281 306.28125 250.703125 305.539062 253.148438 C 304.796875 255.59375 303.996094 258.019531 303.136719 260.425781 C 302.277344 262.832031 301.355469 265.214844 300.378906 267.578125 C 299.402344 269.9375 298.367188 272.273438 297.273438 274.582031 C 296.179688 276.894531 295.03125 279.175781 293.828125 281.429688 C 292.621094 283.683594 291.363281 285.90625 290.050781 288.097656 C 288.738281 290.292969 287.371094 292.449219 285.949219 294.574219 C 284.53125 296.699219 283.058594 298.789062 281.539062 300.839844 C 280.015625 302.894531 278.445312 304.90625 276.824219 306.882812 C 275.203125 308.859375 273.535156 310.792969 271.816406 312.6875 C 270.101562 314.582031 268.339844 316.429688 266.535156 318.238281 C 264.726562 320.046875 262.875 321.808594 260.984375 323.523438 C 259.089844 325.238281 257.15625 326.910156 255.179688 328.53125 C 253.207031 330.152344 251.191406 331.722656 249.140625 333.246094 C 247.085938 334.769531 245 336.238281 242.875 337.660156 C 240.75 339.078125 238.589844 340.445312 236.398438 341.757812 C 234.207031 343.074219 231.984375 344.332031 229.730469 345.539062 C 227.476562 346.742188 225.195312 347.890625 222.886719 348.984375 C 220.578125 350.074219 218.242188 351.113281 215.878906 352.089844 C 213.519531 353.066406 211.136719 353.988281 208.730469 354.847656 C 206.324219 355.707031 203.898438 356.511719 201.453125 357.253906 C 199.007812 357.992188 196.546875 358.675781 194.070312 359.296875 C 191.589844 359.917969 189.097656 360.476562 186.589844 360.976562 C 184.085938 361.472656 181.570312 361.910156 179.039062 362.285156 C 176.511719 362.660156 173.976562 362.972656 171.433594 363.222656 C 168.890625 363.476562 166.34375 363.664062 163.792969 363.789062 C 161.242188 363.914062 158.6875 363.976562 156.132812 363.976562 C 153.578125 363.976562 151.023438 363.914062 148.46875 363.789062 C 145.917969 363.664062 143.371094 363.476562 140.828125 363.222656 C 138.285156 362.972656 135.75 362.660156 133.222656 362.285156 C 130.695312 361.910156 128.179688 361.472656 125.671875 360.976562 C 123.164062 360.476562 120.671875 359.917969 118.195312 359.296875 C 115.714844 358.675781 113.253906 357.992188 110.808594 357.253906 C 108.363281 356.511719 105.9375 355.707031 103.53125 354.847656 C 101.125 353.988281 98.742188 353.066406 96.382812 352.089844 C 94.023438 351.113281 91.6875 350.074219 89.375 348.984375 C 87.066406 347.890625 84.785156 346.742188 82.53125 345.539062 C 80.277344 344.332031 78.054688 343.074219 75.863281 341.757812 C 73.671875 340.445312 71.515625 339.078125 69.390625 337.660156 C 67.265625 336.238281 65.175781 334.769531 63.125 333.246094 C 61.070312 331.722656 59.058594 330.152344 57.082031 328.53125 C 55.109375 326.910156 53.171875 325.238281 51.28125 323.523438 C 49.386719 321.808594 47.535156 320.046875 45.730469 318.238281 C 43.921875 316.429688 42.160156 314.582031 40.445312 312.6875 C 38.730469 310.792969 37.0625 308.859375 35.441406 306.882812 C 33.820312 304.90625 32.246094 302.894531 30.726562 300.839844 C 29.203125 298.789062 27.734375 296.699219 26.3125 294.574219 C 24.894531 292.449219 23.527344 290.292969 22.214844 288.097656 C 20.898438 285.90625 19.640625 283.683594 18.4375 281.429688 C 17.230469 279.175781 16.082031 276.894531 14.992188 274.582031 C 13.898438 272.273438 12.863281 269.9375 11.886719 267.578125 C 10.90625 265.214844 9.988281 262.832031 9.125 260.425781 C 8.265625 258.019531 7.464844 255.59375 6.722656 253.148438 C 5.980469 250.703125 5.300781 248.238281 4.679688 245.761719 C 4.058594 243.28125 3.5 240.789062 3 238.28125 C 2.5 235.777344 2.066406 233.257812 1.691406 230.730469 C 1.316406 228.203125 1.003906 225.667969 0.75 223.125 C 0.5 220.578125 0.3125 218.03125 0.1875 215.480469 C 0.0625 212.925781 0 210.371094 0 207.816406 C 0 205.261719 0.0625 202.707031 0.1875 200.15625 C 0.3125 197.601562 0.5 195.054688 0.75 192.511719 C 1.003906 189.96875 1.316406 187.433594 1.691406 184.902344 C 2.066406 182.375 2.5 179.859375 3 177.351562 C 3.5 174.84375 4.058594 172.351562 4.679688 169.875 C 5.300781 167.394531 5.980469 164.933594 6.722656 162.488281 C 7.464844 160.039062 8.265625 157.613281 9.125 155.207031 C 9.988281 152.800781 10.90625 150.417969 11.886719 148.058594 C 12.863281 145.695312 13.898438 143.359375 14.992188 141.050781 C 16.082031 138.738281 17.230469 136.457031 18.4375 134.203125 C 19.640625 131.949219 20.898438 129.726562 22.214844 127.535156 C 23.527344 125.34375 24.894531 123.183594 26.3125 121.058594 C 27.734375 118.933594 29.203125 116.847656 30.726562 114.792969 C 32.246094 112.742188 33.820312 110.726562 35.441406 108.75 C 37.0625 106.773438 38.730469 104.839844 40.445312 102.945312 C 42.160156 101.054688 43.921875 99.203125 45.730469 97.394531 C 47.535156 95.589844 49.386719 93.828125 51.28125 92.109375 C 53.171875 90.394531 55.109375 88.726562 57.082031 87.105469 C 59.058594 85.484375 61.070312 83.910156 63.125 82.390625 C 65.175781 80.867188 67.265625 79.394531 69.390625 77.976562 C 71.515625 76.554688 73.671875 75.1875 75.863281 73.875 C 78.054688 72.5625 80.277344 71.300781 82.53125 70.097656 C 84.785156 68.890625 87.066406 67.742188 89.375 66.652344 C 91.6875 65.558594 94.023438 64.523438 96.382812 63.542969 C 98.742188 62.566406 101.125 61.648438 103.53125 60.785156 C 105.9375 59.925781 108.363281 59.125 110.808594 58.382812 C 113.253906 57.640625 115.714844 56.957031 118.195312 56.335938 C 120.671875 55.71875 123.164062 55.15625 125.671875 54.660156 C 128.179688 54.160156 130.695312 53.722656 133.222656 53.347656 C 135.75 52.972656 138.285156 52.660156 140.828125 52.410156 C 143.371094 52.160156 145.917969 51.972656 148.46875 51.847656 C 151.023438 51.71875 153.578125 51.65625 156.132812 51.65625 C 158.6875 51.65625 161.242188 51.71875 163.792969 51.847656 C 166.34375 51.972656 168.890625 52.160156 171.433594 52.410156 C 173.976562 52.660156 176.511719 52.972656 179.039062 53.347656 C 181.570312 53.722656 184.085938 54.160156 186.589844 54.660156 C 189.097656 55.15625 191.589844 55.71875 194.070312 56.335938 C 196.546875 56.957031 199.007812 57.640625 201.453125 58.382812 C 203.898438 59.125 206.324219 59.925781 208.730469 60.785156 C 211.136719 61.648438 213.519531 62.566406 215.878906 63.542969 C 218.242188 64.523438 220.578125 65.558594 222.886719 66.652344 C 225.195312 67.742188 227.476562 68.890625 229.730469 70.097656 C 231.984375 71.300781 234.207031 72.5625 236.398438 73.875 C 238.589844 75.1875 240.75 76.554688 242.875 77.976562 C 245 79.394531 247.085938 80.867188 249.140625 82.390625 C 251.191406 83.910156 253.207031 85.484375 255.179688 87.105469 C 257.15625 88.726562 259.089844 90.394531 260.984375 92.109375 C 262.875 93.828125 264.726562 95.589844 266.535156 97.394531 C 268.339844 99.203125 270.101562 101.054688 271.816406 102.945312 C 273.535156 104.839844 275.203125 106.773438 276.824219 108.75 C 278.445312 110.726562 280.015625 112.742188 281.539062 114.792969 C 283.058594 116.847656 284.53125 118.933594 285.949219 121.058594 C 287.371094 123.183594 288.738281 125.34375 290.050781 127.535156 C 291.363281 129.726562 292.621094 131.949219 293.828125 134.203125 C 295.03125 136.457031 296.179688 138.738281 297.273438 141.050781 C 298.367188 143.359375 299.402344 145.695312 300.378906 148.058594 C 301.355469 150.417969 302.277344 152.800781 303.136719 155.207031 C 303.996094 157.613281 304.796875 160.039062 305.539062 162.488281 C 306.28125 164.933594 306.964844 167.394531 307.585938 169.875 C 308.207031 172.351562 308.765625 174.84375 309.261719 177.351562 C 309.761719 179.859375 310.199219 182.375 310.574219 184.902344 C 310.949219 187.433594 311.261719 189.96875 311.511719 192.511719 C 311.761719 195.054688 311.949219 197.601562 312.074219 200.15625 C 312.199219 202.707031 312.261719 205.261719 312.261719 207.816406 Z M 312.261719 207.816406 " fill-opacity="1" fill-rule="nonzero"/><path fill="#252525" d="M 167.242188 341.769531 C 165.992188 343.011719 164.65625 344.316406 163.265625 345.675781 C 157.902344 350.921875 151.226562 357.445312 149.863281 359.96875 L 146.53125 358.171875 C 148.167969 355.140625 154.5 348.953125 160.617188 342.96875 C 163.027344 340.617188 165.300781 338.394531 167.15625 336.492188 C 173.199219 330.304688 190.570312 326.332031 195.074219 325.386719 C 195.960938 322.933594 198.632812 315.207031 204.199219 296.5625 C 210.105469 276.785156 204.722656 264.574219 203.132812 261.59375 C 190.699219 260.179688 182.5625 262.558594 174.6875 264.859375 C 169.921875 266.253906 165.417969 267.570312 160.164062 268.042969 C 159.816406 268.070312 159.46875 268.007812 159.15625 267.855469 C 148.847656 262.773438 112.984375 260.796875 112.625 260.777344 L 112.828125 257 C 113.777344 257.050781 128.265625 257.851562 141.59375 259.796875 C 140.117188 256.917969 139.121094 252.890625 141.5 248.730469 C 145.152344 242.339844 144.308594 232.621094 143.355469 225.863281 C 142.5 219.796875 136.511719 216.195312 134.90625 215.332031 C 134.488281 215.632812 134.097656 215.917969 133.765625 216.167969 C 130.535156 218.613281 128.90625 223.824219 129.660156 226.679688 C 130.4375 229.617188 129.6875 234.457031 128.921875 238.765625 C 128.8125 239.371094 128.691406 240.058594 128.675781 240.238281 C 128.308594 244.640625 128.808594 250.457031 129.996094 251.46875 C 131.183594 251.324219 132.304688 251.078125 133.328125 250.703125 L 134.625 254.257812 C 124.957031 257.785156 109.574219 252.285156 100.382812 249 C 98.003906 248.152344 95.949219 247.417969 94.777344 247.132812 C 91.167969 246.25 75.949219 249.753906 65.886719 252.492188 C 66.824219 255.089844 67.863281 259.050781 66.53125 261.269531 C 65.527344 263.214844 63.914062 280.601562 67.714844 304.699219 C 69.855469 318.246094 69.980469 331.011719 70.140625 347.171875 C 70.257812 359.390625 70.398438 373.21875 71.421875 390.683594 C 81.066406 392.324219 124.675781 398.773438 172.363281 390.527344 C 172.253906 384.921875 171.859375 369.167969 170.867188 363.457031 C 169.972656 358.3125 168.179688 347.457031 167.242188 341.769531 Z M 167.242188 341.769531 " fill-opacity="1" fill-rule="nonzero"/><path fill="#252525" d="M 361.035156 103.457031 L 329.46875 121.710938 C 329.855469 123.058594 330.183594 124.382812 330.429688 125.617188 C 331.214844 129.542969 329.5625 133.324219 327.789062 136.058594 Z M 361.035156 103.457031 " fill-opacity="1" fill-rule="nonzero"/><path fill="#252525" d="M 323.085938 108.878906 C 323.347656 109.140625 323.605469 109.394531 323.835938 109.617188 C 325.320312 111.027344 326.953125 114.347656 328.277344 118.027344 L 370.105469 93.835938 L 295.398438 9.433594 L 253.164062 29.839844 L 324.421875 104.574219 C 325.078125 105.261719 325.125 106.324219 324.535156 107.0625 Z M 323.085938 108.878906 " fill-opacity="1" fill-rule="nonzero"/><path fill="#252525" d="M 74.136719 246.476562 C 74.566406 245.792969 75.980469 243.3125 76.605469 239.484375 C 74.878906 242.292969 72.394531 245.136719 70.128906 247.464844 C 71.378906 247.148438 72.726562 246.816406 74.136719 246.476562 Z M 74.136719 246.476562 " fill-opacity="1" fill-rule="nonzero"/><path fill="#252525" d="M 291.703125 122.007812 L 254.710938 77.144531 L 244.4375 93.90625 L 282.132812 139.816406 C 285.429688 136.300781 288.769531 132.128906 288.992188 130.878906 C 289.230469 129.214844 289.945312 125.328125 291.703125 122.007812 Z M 291.703125 122.007812 " fill-opacity="1" fill-rule="nonzero"/><path fill="#252525" d="M 205.160156 306.476562 C 212.605469 302.660156 229.457031 293.867188 234.371094 289.96875 C 238.550781 286.648438 241.542969 286.378906 244.179688 286.140625 C 245.976562 285.980469 247.527344 285.839844 249.5 284.703125 C 251.214844 283.714844 255.273438 279.226562 263.195312 260.273438 L 263.492188 259.5625 C 263.851562 258.710938 264.667969 257.007812 265.792969 254.652344 C 269.988281 245.902344 278.707031 227.699219 280.570312 218.152344 C 282.769531 206.847656 288.675781 185.519531 291.515625 181.566406 C 292.390625 180.351562 292.707031 178.625 293.042969 176.800781 C 293.476562 174.449219 293.96875 171.785156 295.882812 169.871094 C 296.335938 169.417969 297.023438 168.710938 297.875 167.839844 C 302.535156 163.066406 311.207031 154.183594 314.984375 151.882812 C 317.273438 150.484375 319.023438 144.996094 320.066406 141.714844 C 320.894531 139.113281 321.257812 138.03125 321.925781 137.363281 C 322.164062 137.125 327.742188 131.476562 326.71875 126.363281 C 325.519531 120.351562 322.734375 113.789062 321.230469 112.359375 C 321.070312 112.207031 320.886719 112.027344 320.710938 111.851562 L 318.222656 114.972656 C 319.195312 116.609375 321.972656 121.953125 320.796875 128.066406 L 318.046875 127.539062 C 318.097656 128.179688 318.109375 128.847656 318.066406 129.542969 C 317.730469 135.132812 313.816406 141.964844 313.648438 142.253906 L 310.371094 140.359375 C 310.410156 140.296875 314.007812 134.007812 314.289062 129.316406 C 314.484375 126.050781 313.121094 123.40625 312.40625 122.261719 L 303.808594 133.039062 L 307.0625 134.550781 C 306.039062 136.746094 301.917969 140.4375 299.140625 140.507812 C 297.964844 140.507812 297 139.992188 296.484375 139.011719 C 295.460938 137.074219 297.007812 134.226562 299.832031 129.351562 C 300.675781 127.898438 301.820312 125.917969 301.996094 125.28125 C 302.003906 124.027344 301.46875 121.480469 300.3125 120.578125 C 299.988281 120.328125 299.488281 120.074219 298.460938 120.363281 C 295.050781 121.324219 293.257812 127.761719 292.738281 131.417969 C 292.195312 135.222656 283.160156 144.269531 281.519531 145.777344 C 278.46875 148.574219 278.675781 154.449219 278.828125 158.738281 C 278.878906 160.1875 278.925781 161.441406 278.84375 162.453125 C 278.503906 166.726562 263.488281 207.105469 254.054688 218.816406 C 245.132812 229.894531 236.878906 246.140625 235.601562 249.550781 C 234.050781 253.691406 229.5 257.785156 229.308594 257.957031 C 229.042969 258.191406 228.71875 258.347656 228.371094 258.410156 C 223.363281 259.285156 212.402344 261.273438 207.597656 262.148438 C 209.925781 267.65625 213.171875 279.753906 207.828125 297.644531 C 206.847656 300.917969 205.964844 303.84375 205.160156 306.476562 Z M 205.160156 306.476562 " fill-opacity="1" fill-rule="nonzero"/><path fill="#252525" d="M 147.621094 241.6875 C 156.828125 235.523438 168.910156 226.679688 170.558594 223.285156 C 173.191406 217.878906 178.472656 186.007812 179.671875 170.671875 C 180.820312 155.96875 182.757812 142.980469 183.851562 140.070312 C 183.945312 139.808594 184.078125 139.472656 184.238281 139.074219 C 185.410156 136.117188 188.414062 128.53125 187.574219 123.351562 L 168.539062 115.515625 C 168.457031 116.78125 168.542969 118.5 168.671875 119.628906 L 164.910156 120.058594 C 164.859375 119.597656 164.417969 115.492188 165.082031 113.261719 C 165.546875 111.695312 165.425781 105.457031 163.800781 102.953125 C 162.746094 101.332031 160.070312 100.84375 158.675781 100.757812 C 158.511719 100.871094 158.410156 100.988281 158.382812 101.085938 C 158.1875 101.792969 159.34375 103.570312 160.035156 104.632812 C 160.730469 105.703125 161.386719 106.714844 161.644531 107.695312 C 162.144531 109.609375 161.359375 112.039062 160.453125 114.855469 C 159.910156 116.539062 159.347656 118.28125 159.191406 119.640625 C 159.003906 121.285156 163.179688 127.742188 165.183594 130.84375 C 167.257812 134.050781 168.445312 135.921875 168.808594 137.101562 C 169.960938 140.851562 161.398438 173.421875 159.78125 177.171875 C 157.957031 181.394531 150.808594 198.140625 149.699219 200.746094 C 149.722656 201.613281 149.636719 202.398438 149.394531 203.035156 C 148.445312 205.539062 144.222656 208.746094 138.289062 212.9375 C 141.234375 214.832031 146.195312 218.910156 147.101562 225.335938 C 147.808594 230.351562 148.363281 236.207031 147.621094 241.6875 Z M 147.621094 241.6875 " fill-opacity="1" fill-rule="nonzero"/><path fill="#252525" d="M 145.855469 201.691406 C 146.375 200.324219 144.789062 195.085938 142.980469 191.050781 C 142.851562 190.761719 142.796875 190.441406 142.820312 190.121094 C 142.996094 187.925781 142.722656 184.15625 141.570312 183.042969 C 141.21875 182.707031 141.011719 182.246094 140.992188 181.761719 C 140.992188 181.722656 140.742188 177.292969 137.914062 176.074219 C 137.152344 175.746094 136.695312 174.957031 136.785156 174.128906 C 137.132812 170.945312 137.453125 167.148438 137.441406 165.703125 C 136.019531 164.753906 130.886719 162.816406 126.535156 161.449219 C 126.125 161.320312 125.765625 161.054688 125.527344 160.695312 C 125.46875 160.605469 119.410156 151.632812 108.945312 144.785156 C 95.105469 135.734375 80.4375 134.480469 65.355469 141.0625 C 30.898438 156.09375 36.902344 184.285156 39.464844 196.324219 C 39.621094 197.058594 39.765625 197.734375 39.886719 198.347656 C 41.875 208.277344 54.410156 217.75 59.171875 219.089844 C 63.574219 220.328125 81.371094 230.726562 80.542969 238.613281 C 80.25 241.398438 79.570312 243.6875 78.886719 245.390625 C 85.722656 243.90625 92.753906 242.742188 95.671875 243.453125 C 97.035156 243.785156 99.074219 244.515625 101.65625 245.4375 C 108.128906 247.75 117.835938 251.214844 125.835938 251.589844 C 124.390625 247.558594 124.777344 241.417969 124.902344 239.925781 C 124.933594 239.582031 125.019531 239.09375 125.195312 238.101562 C 125.625 235.683594 126.628906 230.023438 126 227.648438 C 124.921875 223.566406 126.90625 216.609375 131.480469 213.148438 C 132.410156 212.445312 133.636719 211.582031 135.058594 210.582031 C 138.34375 208.273438 145.183594 203.464844 145.855469 201.691406 Z M 145.855469 201.691406 " fill-opacity="1" fill-rule="nonzero"/><path fill="#252525" d="M 255.515625 191.300781 L 267.066406 184.285156 L 267.128906 184.382812 C 269.128906 179.441406 270.90625 174.757812 272.273438 170.960938 Z M 255.515625 191.300781 " fill-opacity="1" fill-rule="nonzero"/><path fill="#252525" d="M 191.308594 122.738281 L 242.230469 93.164062 L 253.183594 75.292969 L 227.859375 44.578125 L 191.199219 122.214844 C 191.234375 122.390625 191.28125 122.558594 191.308594 122.738281 Z M 191.308594 122.738281 " fill-opacity="1" fill-rule="nonzero"/><path fill="#252525" d="M 188.273438 119.542969 L 224.796875 42.199219 L 112.273438 4.882812 L 107.199219 86.203125 L 156.789062 106.585938 C 155.566406 104.703125 154.097656 102.386719 154.730469 100.085938 C 155.074219 98.828125 155.960938 97.84375 157.359375 97.152344 C 157.613281 97.027344 157.894531 96.957031 158.179688 96.957031 C 158.425781 96.949219 164.402344 96.9375 166.972656 100.890625 C 168.777344 103.667969 169.226562 108.421875 169.074219 111.640625 Z M 188.273438 119.542969 " fill-opacity="1" fill-rule="nonzero"/><path fill="#252525" d="M 234.21875 15.453125 L 229.445312 40.554688 L 293.988281 118.828125 C 294.953125 117.859375 296.085938 117.097656 297.4375 116.71875 C 299.917969 116.019531 301.636719 116.808594 302.640625 117.59375 C 304.898438 119.355469 305.601562 122.648438 305.746094 124.542969 L 320.546875 105.992188 Z M 234.21875 15.453125 " fill-opacity="1" fill-rule="nonzero"/><path fill="#252525" d="M 280.542969 141.460938 L 242.785156 95.472656 L 192.117188 124.894531 L 247 195.6875 L 275.097656 161.585938 C 275.113281 160.84375 275.082031 159.917969 275.046875 158.871094 C 274.878906 154.128906 274.625 146.964844 278.957031 142.984375 C 279.460938 142.527344 279.992188 142.011719 280.542969 141.460938 Z M 280.542969 141.460938 " fill-opacity="1" fill-rule="nonzero"/><path fill="#252525" d="M 183.652344 168.46875 L 219.050781 219.191406 L 244.332031 198.421875 L 191.070312 129.722656 C 190.296875 134.046875 188.660156 138.183594 187.757812 140.46875 C 187.609375 140.84375 187.484375 141.15625 187.394531 141.398438 C 186.691406 143.277344 184.898438 153.761719 183.652344 168.46875 Z M 183.652344 168.46875 " fill-opacity="1" fill-rule="nonzero"/><path fill="#252525" d="M 103.398438 86.34375 L 108.296875 7.808594 L 101.976562 15.144531 L 98.035156 89.660156 Z M 103.398438 86.34375 " fill-opacity="1" fill-rule="nonzero"/><path fill="#252525" d="M 314.503906 119.632812 L 314.945312 119.28125 C 315.03125 119.386719 316.304688 121.003906 317.207031 123.578125 C 316.964844 121.375 316.246094 119.46875 315.644531 118.203125 Z M 314.503906 119.632812 " fill-opacity="1" fill-rule="nonzero"/><path fill="#fbff12" d="M 297.28125 5.851562 C 296.71875 5.21875 295.804688 5.035156 295.042969 5.402344 L 250.421875 26.960938 L 234.417969 10.175781 C 233.925781 9.664062 233.191406 9.464844 232.511719 9.667969 C 231.832031 9.867188 231.320312 10.433594 231.1875 11.128906 L 225.964844 38.597656 L 111.132812 0.515625 C 110.40625 0.277344 109.605469 0.496094 109.105469 1.078125 L 98.6875 13.164062 C 98.414062 13.480469 98.253906 13.882812 98.230469 14.300781 L 94.0625 93.070312 C 94.027344 93.773438 94.382812 94.4375 94.988281 94.796875 C 95.59375 95.15625 96.347656 95.148438 96.949219 94.78125 L 105.398438 89.558594 L 157.65625 111.035156 C 157.421875 111.914062 157.113281 112.875 156.847656 113.695312 C 156.25 115.554688 155.628906 117.476562 155.433594 119.210938 C 155.113281 121.992188 157.828125 126.4375 162.007812 132.902344 C 163.355469 134.984375 164.875 137.339844 165.167969 138.148438 C 165.492188 141.546875 158.289062 171.070312 156.304688 175.671875 C 154.992188 178.710938 150.917969 188.246094 148.324219 194.324219 C 147.726562 192.542969 147.066406 190.941406 146.628906 189.9375 C 146.722656 188.179688 146.757812 183.535156 144.710938 180.894531 C 144.515625 179.289062 143.730469 175.390625 140.679688 173.296875 C 140.945312 170.710938 141.371094 166.078125 141.160156 164.679688 C 141.011719 163.671875 140.757812 162 128.277344 158.03125 C 124.882812 153.355469 100.167969 121.742188 63.839844 137.59375 C 26.550781 153.859375 33.007812 184.167969 35.765625 197.113281 C 35.917969 197.828125 36.058594 198.492188 36.175781 199.089844 C 38.582031 211.109375 52.84375 221.242188 58.148438 222.734375 C 62.035156 223.828125 70.984375 229.75 74.898438 234.378906 L 74.859375 234.367188 C 73.449219 239.449219 65.195312 247.214844 62.132812 249.777344 L 62.132812 249.78125 C 61.925781 249.953125 61.753906 250.171875 61.636719 250.421875 C 61.402344 250.917969 61.394531 251.492188 61.617188 251.996094 C 62.929688 254.980469 63.742188 258.542969 63.285156 259.320312 C 61.523438 262.261719 60.167969 281.152344 63.976562 305.289062 C 66.074219 318.5625 66.199219 331.203125 66.355469 347.210938 C 66.476562 359.730469 66.617188 373.921875 67.707031 392.003906 L 71.488281 391.777344 C 71.464844 391.40625 71.445312 391.050781 71.421875 390.683594 C 70.398438 373.21875 70.257812 359.390625 70.140625 347.171875 C 69.980469 331.011719 69.855469 318.246094 67.714844 304.699219 C 63.914062 280.601562 65.527344 263.21875 66.53125 261.269531 C 67.863281 259.050781 66.824219 255.089844 65.886719 252.492188 C 75.949219 249.753906 91.167969 246.25 94.777344 247.132812 C 95.949219 247.417969 98.003906 248.152344 100.382812 249 C 109.574219 252.285156 124.957031 257.785156 134.625 254.257812 L 133.328125 250.703125 C 132.304688 251.078125 131.183594 251.324219 129.996094 251.46875 C 128.808594 250.457031 128.308594 244.644531 128.675781 240.238281 C 128.691406 240.058594 128.8125 239.371094 128.921875 238.765625 C 129.6875 234.457031 130.4375 229.617188 129.660156 226.679688 C 128.90625 223.824219 130.535156 218.613281 133.765625 216.167969 C 134.097656 215.917969 134.488281 215.632812 134.90625 215.332031 C 136.511719 216.195312 142.5 219.796875 143.355469 225.863281 C 144.308594 232.621094 145.152344 242.339844 141.503906 248.730469 C 139.125 252.890625 140.121094 256.917969 141.59375 259.796875 C 128.269531 257.851562 113.777344 257.050781 112.828125 257 L 112.625 260.777344 C 112.984375 260.796875 148.847656 262.773438 159.160156 267.855469 C 159.46875 268.007812 159.816406 268.070312 160.164062 268.042969 C 165.417969 267.570312 169.921875 266.253906 174.691406 264.859375 C 182.566406 262.558594 190.699219 260.179688 203.132812 261.59375 C 204.722656 264.574219 210.105469 276.785156 204.203125 296.5625 C 198.632812 315.207031 195.964844 322.933594 195.074219 325.386719 C 190.570312 326.332031 173.203125 330.304688 167.15625 336.492188 C 165.300781 338.394531 163.027344 340.617188 160.621094 342.96875 C 154.5 348.953125 148.167969 355.140625 146.53125 358.171875 L 149.863281 359.96875 C 151.226562 357.445312 157.902344 350.921875 163.265625 345.675781 C 164.65625 344.316406 165.992188 343.011719 167.242188 341.769531 C 168.179688 347.457031 169.972656 358.3125 170.867188 363.457031 C 171.859375 369.167969 172.253906 384.921875 172.363281 390.527344 C 172.390625 391.753906 172.402344 392.503906 172.402344 392.542969 L 176.1875 392.488281 C 176.171875 391.578125 175.855469 370.0625 174.59375 362.808594 C 173.527344 356.679688 171.183594 342.40625 170.542969 338.511719 C 176.164062 333.714844 191.265625 329.964844 196.839844 328.890625 C 197.472656 328.765625 198 328.332031 198.238281 327.734375 C 198.3125 327.546875 199.726562 323.972656 203.605469 311.519531 C 206.785156 309.914062 230.402344 297.949219 236.722656 292.933594 C 240.019531 290.316406 242.105469 290.128906 244.519531 289.914062 C 246.476562 289.738281 248.699219 289.539062 251.390625 287.984375 C 255.277344 285.742188 260.140625 277.398438 266.6875 261.734375 L 266.980469 261.03125 C 267.304688 260.265625 268.144531 258.507812 269.207031 256.289062 C 273.46875 247.398438 282.332031 228.898438 284.285156 218.875 C 286.722656 206.363281 292.5 186.683594 294.589844 183.777344 C 295.960938 181.871094 296.386719 179.542969 296.765625 177.488281 C 297.132812 175.503906 297.480469 173.628906 298.558594 172.550781 C 299.019531 172.085938 299.71875 171.371094 300.585938 170.484375 C 304.804688 166.164062 313.582031 157.167969 316.957031 155.113281 C 319.492188 153.570312 321.164062 150.070312 322.410156 146.636719 L 374.382812 95.667969 L 374.378906 95.664062 C 374.664062 95.382812 374.859375 95.023438 374.925781 94.621094 C 375.015625 94.058594 374.851562 93.488281 374.476562 93.0625 Z M 314.945312 119.28125 L 314.503906 119.632812 L 315.644531 118.203125 C 316.246094 119.46875 316.964844 121.375 317.207031 123.578125 C 316.304688 121.003906 315.03125 119.386719 314.945312 119.28125 Z M 305.746094 124.542969 C 305.601562 122.648438 304.898438 119.355469 302.640625 117.59375 C 301.636719 116.808594 299.917969 116.019531 297.4375 116.71875 C 296.085938 117.097656 294.953125 117.859375 293.988281 118.828125 L 229.445312 40.554688 L 234.21875 15.453125 L 320.546875 105.992188 Z M 146.625 260.597656 C 145.25 258.933594 142.425781 254.738281 144.789062 250.605469 C 145.433594 249.480469 145.945312 248.28125 146.371094 247.042969 C 150.148438 244.59375 171.109375 230.808594 173.964844 224.941406 C 176.792969 219.125 181.570312 189.992188 183.140625 174.347656 L 217.121094 223.035156 C 217.421875 223.46875 217.890625 223.753906 218.414062 223.828125 C 218.5 223.839844 218.585938 223.84375 218.671875 223.84375 C 219.105469 223.84375 219.53125 223.695312 219.871094 223.414062 L 248.050781 200.265625 L 264.753906 190.117188 C 260.242188 200.765625 255.085938 211.5 251.105469 216.441406 C 241.777344 228.023438 233.429688 244.554688 232.054688 248.222656 C 231.058594 250.886719 228.203125 253.785156 227.164062 254.777344 C 221.429688 255.785156 209.519531 257.949219 205.753906 258.636719 C 205.445312 258.261719 205.015625 258.011719 204.535156 257.949219 C 190.792969 256.203125 181.671875 258.871094 173.628906 261.226562 C 169.203125 262.523438 165.011719 263.746094 160.332031 264.222656 C 157.132812 262.769531 152.164062 261.570312 146.625 260.597656 Z M 166.972656 100.890625 C 164.402344 96.9375 158.425781 96.949219 158.179688 96.957031 C 157.894531 96.957031 157.613281 97.027344 157.359375 97.152344 C 155.960938 97.84375 155.074219 98.828125 154.730469 100.085938 C 154.101562 102.386719 155.566406 104.703125 156.789062 106.585938 L 107.199219 86.203125 L 112.273438 4.882812 L 224.796875 42.199219 L 188.273438 119.542969 L 169.074219 111.640625 C 169.226562 108.421875 168.777344 103.667969 166.972656 100.890625 Z M 253.183594 75.292969 L 242.230469 93.164062 L 191.308594 122.738281 C 191.28125 122.558594 191.234375 122.390625 191.199219 122.214844 L 227.859375 44.578125 Z M 108.296875 7.808594 L 103.398438 86.34375 L 98.035156 89.660156 L 101.976562 15.144531 Z M 191.070312 129.722656 L 244.332031 198.421875 L 219.050781 219.191406 L 183.648438 168.46875 C 184.898438 153.761719 186.691406 143.277344 187.394531 141.398438 C 187.484375 141.15625 187.609375 140.84375 187.757812 140.46875 C 188.660156 138.183594 190.292969 134.046875 191.070312 129.722656 Z M 267.128906 184.382812 L 267.066406 184.285156 L 255.515625 191.300781 L 272.273438 170.960938 C 270.90625 174.757812 269.128906 179.441406 267.128906 184.382812 Z M 275.046875 158.871094 C 275.082031 159.917969 275.113281 160.84375 275.097656 161.585938 L 247 195.6875 L 192.117188 124.894531 L 242.785156 95.472656 L 280.542969 141.460938 C 279.992188 142.011719 279.460938 142.527344 278.957031 142.988281 C 274.625 146.964844 274.878906 154.128906 275.046875 158.871094 Z M 282.132812 139.816406 L 244.4375 93.90625 L 254.710938 77.144531 L 291.703125 122.007812 C 289.945312 125.328125 289.230469 129.214844 288.992188 130.878906 C 288.769531 132.128906 285.429688 136.300781 282.132812 139.816406 Z M 324.421875 104.574219 L 253.164062 29.839844 L 295.398438 9.433594 L 370.105469 93.835938 L 328.277344 118.027344 C 326.953125 114.347656 325.320312 111.027344 323.835938 109.617188 C 323.605469 109.394531 323.347656 109.140625 323.085938 108.878906 L 324.535156 107.0625 C 325.125 106.324219 325.078125 105.261719 324.421875 104.574219 Z M 330.429688 125.617188 C 330.183594 124.382812 329.855469 123.058594 329.46875 121.710938 L 361.035156 103.457031 L 327.789062 136.058594 C 329.5625 133.324219 331.214844 129.542969 330.429688 125.617188 Z M 74.136719 246.476562 C 72.726562 246.816406 71.378906 247.148438 70.128906 247.464844 C 72.394531 245.136719 74.878906 242.292969 76.605469 239.484375 C 75.980469 243.3125 74.566406 245.792969 74.136719 246.476562 Z M 131.480469 213.148438 C 126.90625 216.609375 124.921875 223.566406 126 227.648438 C 126.628906 230.023438 125.625 235.683594 125.195312 238.101562 C 125.019531 239.09375 124.933594 239.582031 124.902344 239.925781 C 124.777344 241.417969 124.390625 247.558594 125.835938 251.589844 C 117.835938 251.214844 108.128906 247.75 101.65625 245.4375 C 99.074219 244.515625 97.035156 243.785156 95.671875 243.453125 C 92.753906 242.746094 85.722656 243.90625 78.886719 245.390625 C 79.570312 243.6875 80.25 241.398438 80.542969 238.613281 C 81.371094 230.726562 63.574219 220.328125 59.171875 219.089844 C 54.410156 217.75 41.875 208.277344 39.886719 198.347656 C 39.765625 197.734375 39.621094 197.058594 39.464844 196.324219 C 36.902344 184.285156 30.898438 156.09375 65.355469 141.0625 C 80.4375 134.484375 95.105469 135.734375 108.945312 144.785156 C 119.410156 151.632812 125.46875 160.605469 125.527344 160.695312 C 125.765625 161.054688 126.125 161.320312 126.535156 161.449219 C 130.886719 162.816406 136.019531 164.757812 137.441406 165.703125 C 137.449219 167.148438 137.132812 170.945312 136.785156 174.128906 C 136.691406 174.957031 137.152344 175.746094 137.914062 176.074219 C 140.742188 177.292969 140.992188 181.722656 140.992188 181.761719 C 141.011719 182.246094 141.21875 182.707031 141.570312 183.042969 C 142.722656 184.15625 142.996094 187.925781 142.820312 190.121094 C 142.796875 190.441406 142.851562 190.761719 142.980469 191.050781 C 144.789062 195.085938 146.375 200.324219 145.855469 201.691406 C 145.183594 203.464844 138.34375 208.273438 135.058594 210.582031 C 133.636719 211.582031 132.410156 212.445312 131.480469 213.148438 Z M 138.289062 212.9375 C 144.222656 208.746094 148.445312 205.542969 149.394531 203.035156 C 149.636719 202.398438 149.722656 201.613281 149.699219 200.746094 C 150.808594 198.140625 157.957031 181.394531 159.78125 177.171875 C 161.398438 173.421875 169.960938 140.851562 168.808594 137.105469 C 168.445312 135.921875 167.257812 134.050781 165.183594 130.84375 C 163.179688 127.742188 159.003906 121.285156 159.191406 119.640625 C 159.347656 118.28125 159.910156 116.539062 160.453125 114.855469 C 161.359375 112.042969 162.144531 109.609375 161.644531 107.695312 C 161.386719 106.714844 160.730469 105.703125 160.035156 104.632812 C 159.34375 103.570312 158.1875 101.792969 158.382812 101.085938 C 158.410156 100.988281 158.511719 100.871094 158.675781 100.757812 C 160.070312 100.84375 162.746094 101.332031 163.800781 102.953125 C 165.425781 105.457031 165.546875 111.695312 165.082031 113.261719 C 164.417969 115.496094 164.859375 119.597656 164.910156 120.058594 L 168.671875 119.628906 C 168.542969 118.5 168.457031 116.78125 168.539062 115.515625 L 187.574219 123.351562 C 188.414062 128.53125 185.410156 136.117188 184.238281 139.074219 C 184.078125 139.472656 183.945312 139.808594 183.851562 140.070312 C 182.757812 142.980469 180.820312 155.96875 179.671875 170.671875 C 178.472656 186.011719 173.191406 217.878906 170.558594 223.285156 C 168.910156 226.679688 156.828125 235.523438 147.621094 241.6875 C 148.363281 236.207031 147.808594 230.351562 147.101562 225.335938 C 146.195312 218.910156 141.234375 214.832031 138.289062 212.9375 Z M 207.597656 262.148438 C 212.402344 261.273438 223.363281 259.285156 228.371094 258.410156 C 228.71875 258.347656 229.042969 258.191406 229.308594 257.957031 C 229.5 257.785156 234.046875 253.691406 235.601562 249.550781 C 236.878906 246.140625 245.132812 229.894531 254.054688 218.816406 C 263.488281 207.105469 278.5 166.726562 278.84375 162.453125 C 278.925781 161.441406 278.878906 160.1875 278.828125 158.738281 C 278.675781 154.449219 278.46875 148.574219 281.519531 145.777344 C 283.160156 144.269531 292.195312 135.222656 292.738281 131.417969 C 293.257812 127.761719 295.050781 121.324219 298.460938 120.363281 C 299.488281 120.074219 299.988281 120.324219 300.3125 120.578125 C 301.46875 121.480469 302.003906 124.027344 301.996094 125.28125 C 301.820312 125.917969 300.671875 127.898438 299.832031 129.351562 C 297.007812 134.226562 295.460938 137.074219 296.484375 139.011719 C 297 139.992188 297.964844 140.507812 299.140625 140.507812 C 301.917969 140.4375 306.039062 136.746094 307.058594 134.550781 L 303.808594 133.039062 L 312.40625 122.261719 C 313.121094 123.40625 314.484375 126.050781 314.289062 129.316406 C 314.007812 134.007812 310.410156 140.296875 310.371094 140.359375 L 313.648438 142.253906 C 313.816406 141.964844 317.730469 135.132812 318.066406 129.542969 C 318.109375 128.847656 318.097656 128.179688 318.046875 127.539062 L 320.796875 128.066406 C 321.972656 121.953125 319.195312 116.609375 318.222656 114.972656 L 320.710938 111.851562 C 320.886719 112.023438 321.070312 112.207031 321.230469 112.359375 C 322.734375 113.789062 325.519531 120.351562 326.71875 126.363281 C 327.742188 131.476562 322.164062 137.125 321.925781 137.363281 C 321.257812 138.03125 320.894531 139.113281 320.066406 141.714844 C 319.023438 144.996094 317.273438 150.484375 314.984375 151.882812 C 311.207031 154.183594 302.535156 163.066406 297.875 167.839844 C 297.023438 168.710938 296.335938 169.417969 295.878906 169.871094 C 293.96875 171.785156 293.476562 174.449219 293.042969 176.800781 C 292.707031 178.625 292.390625 180.347656 291.515625 181.566406 C 288.675781 185.519531 282.769531 206.847656 280.566406 218.152344 C 278.707031 227.699219 269.984375 245.902344 265.792969 254.652344 C 264.667969 257.007812 263.851562 258.710938 263.492188 259.558594 L 263.195312 260.273438 C 255.273438 279.226562 251.214844 283.714844 249.5 284.703125 C 247.527344 285.839844 245.976562 285.980469 244.179688 286.140625 C 241.542969 286.378906 238.550781 286.648438 234.371094 289.964844 C 229.457031 293.867188 212.605469 302.660156 205.160156 306.476562 C 205.964844 303.84375 206.847656 300.917969 207.828125 297.644531 C 213.171875 279.753906 209.925781 267.65625 207.597656 262.148438 Z M 207.597656 262.148438 " fill-opacity="1" fill-rule="nonzero"/></svg>