<svg xmlns="http://www.w3.org/2000/svg" xmlns:xlink="http://www.w3.org/1999/xlink" width="500" zoomAndPan="magnify" viewBox="0 0 375 374.999991" height="500" preserveAspectRatio="xMidYMid meet" version="1.0"><defs><clipPath id="496e4ac1b9"><path d="M 11.195312 11.195312 L 362.304688 11.195312 L 362.304688 362.304688 L 11.195312 362.304688 Z M 11.195312 11.195312 " clip-rule="nonzero"/></clipPath><clipPath id="a74e1ef129"><path d="M 186.75 11.195312 C 89.792969 11.195312 11.195312 89.792969 11.195312 186.75 C 11.195312 283.707031 89.792969 362.304688 186.75 362.304688 C 283.707031 362.304688 362.304688 283.707031 362.304688 186.75 C 362.304688 89.792969 283.707031 11.195312 186.75 11.195312 " clip-rule="nonzero"/></clipPath><clipPath id="b0876418ed"><path d="M 68.980469 68.980469 L 306.035156 68.980469 L 306.035156 306.035156 L 68.980469 306.035156 Z M 68.980469 68.980469 " clip-rule="nonzero"/></clipPath></defs><path fill="#252525" d="M 187.613281 375.226562 C 83.964844 375.226562 0 290.6875 0 187.613281 C 0 84.542969 83.964844 0 187.613281 0 C 291.265625 0 375.226562 83.964844 375.226562 187.613281 C 375.226562 291.265625 290.6875 375.226562 187.613281 375.226562 Z M 187.613281 11.582031 C 90.332031 11.582031 11.582031 90.332031 11.582031 187.613281 C 11.582031 284.894531 90.332031 363.648438 187.613281 363.648438 C 284.894531 363.648438 363.648438 284.894531 363.648438 187.613281 C 363.648438 90.332031 284.316406 11.582031 187.613281 11.582031 Z M 187.613281 11.582031 " fill-opacity="1" fill-rule="nonzero"/><g clip-path="url(#496e4ac1b9)"><g clip-path="url(#a74e1ef129)"><path fill="#fbff12" d="M 11.195312 11.195312 L 362.304688 11.195312 L 362.304688 362.304688 L 11.195312 362.304688 Z M 11.195312 11.195312 " fill-opacity="1" fill-rule="nonzero"/></g></g><g clip-path="url(#b0876418ed)"><path fill="#000000" d="M 187.507812 306.035156 C 122.027344 306.035156 68.980469 252.625 68.980469 187.507812 C 68.980469 122.390625 122.027344 68.980469 187.507812 68.980469 C 252.988281 68.980469 306.035156 122.027344 306.035156 187.507812 C 306.035156 252.988281 252.625 306.035156 187.507812 306.035156 Z M 187.507812 76.296875 C 126.050781 76.296875 76.296875 126.050781 76.296875 187.507812 C 76.296875 248.964844 126.050781 298.71875 187.507812 298.71875 C 248.964844 298.71875 298.71875 248.964844 298.71875 187.507812 C 298.71875 126.050781 248.601562 76.296875 187.507812 76.296875 Z M 187.507812 76.296875 " fill-opacity="1" fill-rule="nonzero"/></g></svg>